<?xml version="1.0" encoding="UTF-8" standalone="no"?>
<svg
   xmlns:dc="http://purl.org/dc/elements/1.1/"
   xmlns:cc="http://creativecommons.org/ns#"
   xmlns:rdf="http://www.w3.org/1999/02/22-rdf-syntax-ns#"
   xmlns:svg="http://www.w3.org/2000/svg"
   xmlns="http://www.w3.org/2000/svg"
   xmlns:sodipodi="http://sodipodi.sourceforge.net/DTD/sodipodi-0.dtd"
   xmlns:inkscape="http://www.inkscape.org/namespaces/inkscape"
   sodipodi:docname="Maker label.svg"
   inkscape:version="1.0 (4035a4fb49, 2020-05-01)"
   id="svg1618"
   version="1.1"
   viewBox="0 0 297 210"
   height="210mm"
   width="297mm">
  <defs
     id="defs1612" />
  <sodipodi:namedview
     inkscape:window-maximized="1"
     inkscape:window-y="-8"
     inkscape:window-x="-8"
     inkscape:window-height="1017"
     inkscape:window-width="1920"
     showgrid="false"
     inkscape:document-rotation="0"
     inkscape:current-layer="layer1"
     inkscape:document-units="mm"
     inkscape:cy="401.37573"
     inkscape:cx="542.42946"
     inkscape:zoom="1.473546"
     inkscape:pageshadow="2"
     inkscape:pageopacity="0.0"
     borderopacity="1.0"
     bordercolor="#666666"
     pagecolor="#ffffff"
     id="base" />
  <metadata
     id="metadata1615">
    <rdf:RDF>
      <cc:Work
         rdf:about="">
        <dc:format>image/svg+xml</dc:format>
        <dc:type
           rdf:resource="http://purl.org/dc/dcmitype/StillImage" />
        <dc:title></dc:title>
      </cc:Work>
    </rdf:RDF>
  </metadata>
  <g
     id="layer1"
     inkscape:groupmode="layer"
     inkscape:label="Layer 1">
    <rect
       y="38.266205"
       x="46.952843"
       height="80.61322"
       width="156.89851"
       id="rect2607"
       style="opacity:0.999;fill:none;fill-opacity:0.522613;stroke:#000000;stroke-width:0.286641;stroke-linejoin:round;stroke-miterlimit:4;stroke-dasharray:none;stroke-dashoffset:0" />
    <text
       id="text2611"
       y="110.82076"
       x="121.3566"
       style="font-style:normal;font-weight:normal;font-size:4.93889px;line-height:1.25;font-family:sans-serif;letter-spacing:0px;word-spacing:0px;fill:#000000;fill-opacity:1;stroke:none;stroke-width:0.264583"
       xml:space="preserve"><tspan
         style="font-size:4.93889px;stroke-width:0.264583"
         y="110.82076"
         x="121.3566"
         id="tspan2609"
         sodipodi:role="line">Input</tspan></text>
    <rect
       y="38.227989"
       x="203.56778"
       height="50.032017"
       width="46.61591"
       id="rect2613"
       style="opacity:0.999;fill:none;fill-opacity:0.522613;stroke:#000000;stroke-width:0.184663;stroke-linejoin:round;stroke-miterlimit:4;stroke-dasharray:none;stroke-dashoffset:0" />
    <text
       xml:space="preserve"
       style="font-style:normal;font-weight:normal;font-size:4.9389px;line-height:1.25;font-family:sans-serif;letter-spacing:0px;word-spacing:0px;fill:#000000;fill-opacity:1;stroke:none;stroke-width:0.264583"
       x="220.67505"
       y="45.3624"
       id="text2611-6"><tspan
         sodipodi:role="line"
         id="tspan2609-7"
         x="220.67505"
         y="45.3624"
         style="font-size:4.9389px;stroke-width:0.264583">Output</tspan></text>
    <text
       id="text2611-6-6"
       y="128.52855"
       x="119.51897"
       style="font-style:normal;font-weight:normal;font-size:4.9389px;line-height:1.25;font-family:sans-serif;letter-spacing:0px;word-spacing:0px;fill:#000000;fill-opacity:1;stroke:none;stroke-width:0.264583"
       xml:space="preserve"><tspan
         style="font-size:4.9389px;stroke-width:0.264583"
         y="128.52855"
         x="119.51897"
         id="tspan2609-7-6"
         sodipodi:role="line">Trigger</tspan></text>
    <text
       id="text2653"
       y="159.58664"
       x="208.97804"
       style="font-style:normal;font-weight:normal;font-size:10.5833px;line-height:0.25;font-family:sans-serif;letter-spacing:0px;word-spacing:0px;fill:#000000;fill-opacity:1;stroke:none;stroke-width:0.264583"
       xml:space="preserve"><tspan
         style="font-size:3.52778px;stroke-width:0.264583"
         y="159.58664"
         x="208.97804"
         id="tspan2651"
         sodipodi:role="line">Out - MIDI - In</tspan><tspan
         id="tspan2657"
         style="font-size:3.52778px;stroke-width:0.264583"
         y="163.37779"
         x="208.97804"
         sodipodi:role="line">IDE 1      IDE 0</tspan><tspan
         id="tspan2655"
         style="font-size:3.52778px;stroke-width:0.264583"
         y="167.16895"
         x="208.97804"
         sodipodi:role="line" /></text>
    <text
       id="text2661"
       y="149.61771"
       x="59.477894"
       style="font-style:normal;font-weight:normal;font-size:10.5833px;line-height:1.25;font-family:sans-serif;letter-spacing:0px;word-spacing:0px;fill:#000000;fill-opacity:1;stroke:none;stroke-width:0.264583"
       xml:space="preserve"><tspan
         style="font-size:3.52778px;stroke-width:0.264583"
         y="149.61771"
         x="59.477894"
         id="tspan2659"
         sodipodi:role="line">IDE 2</tspan></text>
    <text
       xml:space="preserve"
       style="font-style:normal;font-weight:normal;font-size:10.5833px;line-height:1.25;font-family:sans-serif;letter-spacing:0px;word-spacing:0px;fill:#000000;fill-opacity:1;stroke:none;stroke-width:0.264583"
       x="84.967323"
       y="149.591"
       id="text2661-7"><tspan
         sodipodi:role="line"
         id="tspan2659-0"
         x="84.967323"
         y="149.591"
         style="font-size:3.52777px;stroke-width:0.264583">IDE 4</tspan></text>
    <text
       xml:space="preserve"
       style="font-style:normal;font-weight:normal;font-size:10.5833px;line-height:1.25;font-family:sans-serif;letter-spacing:0px;word-spacing:0px;fill:#000000;fill-opacity:1;stroke:none;stroke-width:0.264583"
       x="110.51186"
       y="149.591"
       id="text2661-0"><tspan
         sodipodi:role="line"
         id="tspan2659-6"
         x="110.51186"
         y="149.591"
         style="font-size:3.52777px;stroke-width:0.264583">IDE 7</tspan></text>
    <text
       xml:space="preserve"
       style="font-style:normal;font-weight:normal;font-size:10.5833px;line-height:1.25;font-family:sans-serif;letter-spacing:0px;word-spacing:0px;fill:#000000;fill-opacity:1;stroke:none;stroke-width:0.264583"
       x="136.02454"
       y="149.591"
       id="text2661-4"><tspan
         sodipodi:role="line"
         id="tspan2659-8"
         x="136.02454"
         y="149.591"
         style="font-size:3.52777px;stroke-width:0.264583">IDE 8</tspan></text>
    <text
       xml:space="preserve"
       style="font-style:normal;font-weight:normal;font-size:10.5833px;line-height:1.25;font-family:sans-serif;letter-spacing:0px;word-spacing:0px;fill:#000000;fill-opacity:1;stroke:none;stroke-width:0.264583"
       x="160.42961"
       y="149.61771"
       id="text2661-5"><tspan
         sodipodi:role="line"
         id="tspan2659-9"
         x="160.42961"
         y="149.61771"
         style="font-size:3.52777px;stroke-width:0.264583">IDE 12</tspan></text>
    <text
       xml:space="preserve"
       style="font-style:normal;font-weight:normal;font-size:10.5833px;line-height:1.25;font-family:sans-serif;letter-spacing:0px;word-spacing:0px;fill:#000000;fill-opacity:1;stroke:none;stroke-width:0.264583"
       x="185.91902"
       y="149.59532"
       id="text2661-2"><tspan
         sodipodi:role="line"
         id="tspan2659-88"
         x="185.91902"
         y="149.59532"
         style="font-size:3.52777px;stroke-width:0.264583">IDE 14</tspan></text>
    <text
       xml:space="preserve"
       style="font-style:normal;font-weight:normal;font-size:10.5833px;line-height:1.25;font-family:sans-serif;letter-spacing:0px;word-spacing:0px;fill:#000000;fill-opacity:1;stroke:none;stroke-width:0.264583"
       x="59.054657"
       y="68.59243"
       id="text2661-1"><tspan
         sodipodi:role="line"
         id="tspan2659-99"
         x="59.054657"
         y="68.59243"
         style="font-size:3.52777px;stroke-width:0.264583">Level</tspan></text>
    <text
       xml:space="preserve"
       style="font-style:normal;font-weight:normal;font-size:10.5833px;line-height:1.25;font-family:sans-serif;letter-spacing:0px;word-spacing:0px;fill:#000000;fill-opacity:1;stroke:none;stroke-width:0.264583"
       x="57.879391"
       y="91.337357"
       id="text2661-8"><tspan
         sodipodi:role="line"
         id="tspan2659-64"
         x="57.879391"
         y="91.337357"
         style="font-size:3.52777px;stroke-width:0.264583">Amount</tspan></text>
    <text
       id="text2661-8-4"
       y="91.337357"
       x="83.092567"
       style="font-style:normal;font-weight:normal;font-size:10.5833px;line-height:1.25;font-family:sans-serif;letter-spacing:0px;word-spacing:0px;fill:#000000;fill-opacity:1;stroke:none;stroke-width:0.264583"
       xml:space="preserve"><tspan
         style="font-size:3.52777px;stroke-width:0.264583"
         y="91.337357"
         x="83.092567"
         id="tspan2659-64-3"
         sodipodi:role="line">Amount</tspan></text>
    <text
       id="text2661-8-8"
       y="91.337357"
       x="108.30575"
       style="font-style:normal;font-weight:normal;font-size:10.5833px;line-height:1.25;font-family:sans-serif;letter-spacing:0px;word-spacing:0px;fill:#000000;fill-opacity:1;stroke:none;stroke-width:0.264583"
       xml:space="preserve"><tspan
         style="font-size:3.52777px;stroke-width:0.264583"
         y="91.337357"
         x="108.30575"
         id="tspan2659-64-4"
         sodipodi:role="line">Amount</tspan></text>
    <text
       id="text2661-8-3"
       y="91.337357"
       x="133.51892"
       style="font-style:normal;font-weight:normal;font-size:10.5833px;line-height:1.25;font-family:sans-serif;letter-spacing:0px;word-spacing:0px;fill:#000000;fill-opacity:1;stroke:none;stroke-width:0.264583"
       xml:space="preserve"><tspan
         style="font-size:3.52777px;stroke-width:0.264583"
         y="91.337357"
         x="133.51892"
         id="tspan2659-64-8"
         sodipodi:role="line">Amount</tspan></text>
    <text
       id="text2661-8-7"
       y="91.337357"
       x="158.7321"
       style="font-style:normal;font-weight:normal;font-size:10.5833px;line-height:1.25;font-family:sans-serif;letter-spacing:0px;word-spacing:0px;fill:#000000;fill-opacity:1;stroke:none;stroke-width:0.264583"
       xml:space="preserve"><tspan
         style="font-size:3.52777px;stroke-width:0.264583"
         y="91.337357"
         x="158.7321"
         id="tspan2659-64-83"
         sodipodi:role="line">Amount</tspan></text>
    <text
       id="text2661-8-9"
       y="91.337357"
       x="183.94527"
       style="font-style:normal;font-weight:normal;font-size:10.5833px;line-height:1.25;font-family:sans-serif;letter-spacing:0px;word-spacing:0px;fill:#000000;fill-opacity:1;stroke:none;stroke-width:0.264583"
       xml:space="preserve"><tspan
         style="font-size:3.52777px;stroke-width:0.264583"
         y="91.337357"
         x="183.94527"
         id="tspan2659-64-2"
         sodipodi:role="line">Amount</tspan></text>
    <text
       id="text2661-1-4"
       y="68.59243"
       x="85.101334"
       style="font-style:normal;font-weight:normal;font-size:10.5833px;line-height:1.25;font-family:sans-serif;letter-spacing:0px;word-spacing:0px;fill:#000000;fill-opacity:1;stroke:none;stroke-width:0.264583"
       xml:space="preserve"><tspan
         style="font-size:3.52777px;stroke-width:0.264583"
         y="68.59243"
         x="85.101334"
         id="tspan2659-99-4"
         sodipodi:role="line">Level</tspan></text>
    <text
       id="text2661-1-7"
       y="68.59243"
       x="110.7889"
       style="font-style:normal;font-weight:normal;font-size:10.5833px;line-height:1.25;font-family:sans-serif;letter-spacing:0px;word-spacing:0px;fill:#000000;fill-opacity:1;stroke:none;stroke-width:0.264583"
       xml:space="preserve"><tspan
         style="font-size:3.52777px;stroke-width:0.264583"
         y="68.59243"
         x="110.7889"
         id="tspan2659-99-1"
         sodipodi:role="line">Level</tspan></text>
    <text
       id="text2661-1-5"
       y="68.59243"
       x="135.93781"
       style="font-style:normal;font-weight:normal;font-size:10.5833px;line-height:1.25;font-family:sans-serif;letter-spacing:0px;word-spacing:0px;fill:#000000;fill-opacity:1;stroke:none;stroke-width:0.264583"
       xml:space="preserve"><tspan
         style="font-size:3.52777px;stroke-width:0.264583"
         y="68.59243"
         x="135.93781"
         id="tspan2659-99-8"
         sodipodi:role="line">Level</tspan></text>
    <text
       id="text2661-1-3"
       y="68.59243"
       x="161.62537"
       style="font-style:normal;font-weight:normal;font-size:10.5833px;line-height:1.25;font-family:sans-serif;letter-spacing:0px;word-spacing:0px;fill:#000000;fill-opacity:1;stroke:none;stroke-width:0.264583"
       xml:space="preserve"><tspan
         style="font-size:3.52777px;stroke-width:0.264583"
         y="68.59243"
         x="161.62537"
         id="tspan2659-99-10"
         sodipodi:role="line">Level</tspan></text>
    <text
       id="text2661-1-1"
       y="68.59243"
       x="187.13339"
       style="font-style:normal;font-weight:normal;font-size:10.5833px;line-height:1.25;font-family:sans-serif;letter-spacing:0px;word-spacing:0px;fill:#000000;fill-opacity:1;stroke:none;stroke-width:0.264583"
       xml:space="preserve"><tspan
         style="font-size:3.52777px;stroke-width:0.264583"
         y="68.59243"
         x="187.13339"
         id="tspan2659-99-5"
         sodipodi:role="line">Level</tspan></text>
    <text
       id="text2661-1-9"
       y="45.871349"
       x="59.16473"
       style="font-style:normal;font-weight:normal;font-size:10.5833px;line-height:1.25;font-family:sans-serif;letter-spacing:0px;word-spacing:0px;fill:#000000;fill-opacity:1;stroke:none;stroke-width:0.264583"
       xml:space="preserve"><tspan
         style="font-size:3.52777px;stroke-width:0.264583"
         y="45.871349"
         x="59.16473"
         id="tspan2659-99-12"
         sodipodi:role="line">IDE 14</tspan></text>
    <text
       xml:space="preserve"
       style="font-style:normal;font-weight:normal;font-size:10.5833px;line-height:1.25;font-family:sans-serif;letter-spacing:0px;word-spacing:0px;fill:#000000;fill-opacity:1;stroke:none;stroke-width:0.264583"
       x="84.774185"
       y="45.84465"
       id="text2661-1-9-6"><tspan
         sodipodi:role="line"
         id="tspan2659-99-12-3"
         x="84.774185"
         y="45.84465"
         style="font-size:3.52777px;stroke-width:0.264583">IDE 15</tspan></text>
    <text
       xml:space="preserve"
       style="font-style:normal;font-weight:normal;font-size:10.5833px;line-height:1.25;font-family:sans-serif;letter-spacing:0px;word-spacing:0px;fill:#000000;fill-opacity:1;stroke:none;stroke-width:0.264583"
       x="110.4943"
       y="45.86446"
       id="text2661-1-9-4"><tspan
         sodipodi:role="line"
         id="tspan2659-99-12-1"
         x="110.4943"
         y="45.86446"
         style="font-size:3.52777px;stroke-width:0.264583">IDE 16</tspan></text>
    <text
       xml:space="preserve"
       style="font-style:normal;font-weight:normal;font-size:10.5833px;line-height:1.25;font-family:sans-serif;letter-spacing:0px;word-spacing:0px;fill:#000000;fill-opacity:1;stroke:none;stroke-width:0.264583"
       x="135.36142"
       y="46.410019"
       id="text2661-1-9-3"><tspan
         sodipodi:role="line"
         id="tspan2659-99-12-6"
         x="135.36142"
         y="46.410019"
         style="font-size:3.52777px;stroke-width:0.264583">IDE 17</tspan></text>
    <text
       xml:space="preserve"
       style="font-style:normal;font-weight:normal;font-size:10.5833px;line-height:1.25;font-family:sans-serif;letter-spacing:0px;word-spacing:0px;fill:#000000;fill-opacity:1;stroke:none;stroke-width:0.264583"
       x="160.02747"
       y="45.328381"
       id="text2661-1-9-49"><tspan
         sodipodi:role="line"
         id="tspan2659-99-12-0"
         x="160.02747"
         y="45.328381"
         style="font-size:3.52777px;stroke-width:0.264583">IDE 18</tspan></text>
    <text
       xml:space="preserve"
       style="font-style:normal;font-weight:normal;font-size:10.5833px;line-height:1.25;font-family:sans-serif;letter-spacing:0px;word-spacing:0px;fill:#000000;fill-opacity:1;stroke:none;stroke-width:0.264583"
       x="183.27428"
       y="46.406574"
       id="text2661-1-9-2"><tspan
         sodipodi:role="line"
         id="tspan2659-99-12-31"
         x="183.27428"
         y="46.406574"
         style="font-size:3.52777px;stroke-width:0.264583">IDE 19</tspan></text>
    <text
       id="text2917"
       y="107.42905"
       x="225.13777"
       style="font-style:normal;font-weight:normal;font-size:5.64444px;line-height:1.25;font-family:sans-serif;letter-spacing:0px;word-spacing:0px;fill:#000000;fill-opacity:1;stroke:none;stroke-width:0.264583"
       xml:space="preserve"><tspan
         style="font-size:5.64444px;stroke-width:0.264583"
         y="107.42905"
         x="225.13777"
         id="tspan2915"
         sodipodi:role="line">CV</tspan></text>
    <text
       id="text2661-1-9-2-2"
       y="72.15081"
       x="211.48035"
       style="font-style:normal;font-weight:normal;font-size:10.5833px;line-height:1.25;font-family:sans-serif;letter-spacing:0px;word-spacing:0px;fill:#000000;fill-opacity:1;stroke:none;stroke-width:0.264583"
       xml:space="preserve"><tspan
         style="font-size:3.52777px;stroke-width:0.264583"
         y="72.15081"
         x="211.48035"
         id="tspan2659-99-12-31-1"
         sodipodi:role="line">IDE 9</tspan></text>
    <text
       id="text2661-1-9-2-1"
       y="72.149086"
       x="236.36313"
       style="font-style:normal;font-weight:normal;font-size:10.5833px;line-height:1.25;font-family:sans-serif;letter-spacing:0px;word-spacing:0px;fill:#000000;fill-opacity:1;stroke:none;stroke-width:0.264583"
       xml:space="preserve"><tspan
         style="font-size:3.52777px;stroke-width:0.264583"
         y="72.149086"
         x="236.36313"
         id="tspan2659-99-12-31-4"
         sodipodi:role="line">IDE 10</tspan></text>
    <text
       xml:space="preserve"
       style="font-style:normal;font-weight:normal;font-size:10.5833px;line-height:1.25;font-family:sans-serif;letter-spacing:0px;word-spacing:0px;fill:#000000;fill-opacity:1;stroke:none;stroke-width:0.264583"
       x="212.55826"
       y="106.65958"
       id="text2661-1-9-2-2-1"><tspan
         sodipodi:role="line"
         id="tspan2659-99-12-31-1-5"
         x="212.55826"
         y="106.65958"
         style="font-size:3.52777px;stroke-width:0.264583">IDE 3</tspan></text>
    <text
       id="text2661-1-9-2-2-1-5"
       y="106.63288"
       x="237.30045"
       style="font-style:normal;font-weight:normal;font-size:10.5833px;line-height:1.25;font-family:sans-serif;letter-spacing:0px;word-spacing:0px;fill:#000000;fill-opacity:1;stroke:none;stroke-width:0.264583"
       xml:space="preserve"><tspan
         style="font-size:3.52777px;stroke-width:0.264583"
         y="106.63288"
         x="237.30045"
         id="tspan2659-99-12-31-1-5-8"
         sodipodi:role="line">IDE 5</tspan></text>
    <text
       id="text2661-1-9-2-2-1-6"
       y="125.66846"
       x="212.41013"
       style="font-style:normal;font-weight:normal;font-size:10.5833px;line-height:1.25;font-family:sans-serif;letter-spacing:0px;word-spacing:0px;fill:#000000;fill-opacity:1;stroke:none;stroke-width:0.264583"
       xml:space="preserve"><tspan
         style="font-size:3.52777px;stroke-width:0.264583"
         y="125.66846"
         x="212.41013"
         id="tspan2659-99-12-31-1-5-5"
         sodipodi:role="line">IDE 6</tspan></text>
    <text
       id="text2661-1-9-2-2-1-4"
       y="125.67535"
       x="236.41774"
       style="font-style:normal;font-weight:normal;font-size:10.5833px;line-height:1.25;font-family:sans-serif;letter-spacing:0px;word-spacing:0px;fill:#000000;fill-opacity:1;stroke:none;stroke-width:0.264583"
       xml:space="preserve"><tspan
         style="font-size:3.52777px;stroke-width:0.264583"
         y="125.67535"
         x="236.41774"
         id="tspan2659-99-12-31-1-5-51"
         sodipodi:role="line">IDE 11</tspan></text>
    <g
       id="g3005"
       inkscape:label="40hp"
       transform="matrix(0.70555554,0,0,-0.70555554,-384.33117,566.15183)">
      <path
         d="M 0,0 V 1224"
         style="fill:none;stroke:#00509b;stroke-width:1.44;stroke-linecap:butt;stroke-linejoin:miter;stroke-miterlimit:2;stroke-dasharray:none;stroke-opacity:1"
         id="path3007" />
      <path
         d="M 0,0 H 1584"
         style="fill:none;stroke:#00509b;stroke-width:1.44;stroke-linecap:butt;stroke-linejoin:miter;stroke-miterlimit:2;stroke-dasharray:none;stroke-opacity:1"
         id="path3009" />
      <path
         d="M 0,1224 H 1584"
         style="fill:none;stroke:#00509b;stroke-width:1.44;stroke-linecap:butt;stroke-linejoin:miter;stroke-miterlimit:2;stroke-dasharray:none;stroke-opacity:1"
         id="path3011" />
      <path
         d="M 1584,0 V 1224"
         style="fill:none;stroke:#00509b;stroke-width:1.44;stroke-linecap:butt;stroke-linejoin:miter;stroke-miterlimit:2;stroke-dasharray:none;stroke-opacity:1"
         id="path3013" />
      <path
         d="m 611.26483,748.18823 v -189"
         style="fill:none;stroke:#00509b;stroke-width:1.44;stroke-linecap:butt;stroke-linejoin:miter;stroke-miterlimit:2;stroke-dasharray:none;stroke-opacity:1"
         id="path3015" />
      <path
         d="m 611.26483,559.18823 h 288"
         style="fill:none;stroke:#00509b;stroke-width:1.44;stroke-linecap:butt;stroke-linejoin:miter;stroke-miterlimit:2;stroke-dasharray:none;stroke-opacity:1"
         id="path3017" />
      <path
         d="m 899.26483,748.18823 h -288"
         style="fill:none;stroke:#00509b;stroke-width:1.44;stroke-linecap:butt;stroke-linejoin:miter;stroke-miterlimit:2;stroke-dasharray:none;stroke-opacity:1"
         id="path3019" />
      <path
         d="m 899.26483,559.18823 v 189"
         style="fill:none;stroke:#00509b;stroke-width:1.44;stroke-linecap:butt;stroke-linejoin:miter;stroke-miterlimit:2;stroke-dasharray:none;stroke-opacity:1"
         id="path3021" />
      <path
         d="m 748.96484,582.58826 c 0,2.48523 -2.01471,4.5 -4.5,4.5 -2.48529,0 -4.5,-2.01477 -4.5,-4.5 0,-2.48529 2.01471,-4.5 4.5,-4.5 2.48529,0 4.5,2.01471 4.5,4.5"
         style="fill:none;stroke:#00509b;stroke-width:1.44;stroke-linecap:butt;stroke-linejoin:miter;stroke-miterlimit:2;stroke-dasharray:none;stroke-opacity:1"
         id="path3023" />
      <path
         d="m 712.96484,582.58826 c 0,2.48523 -2.01471,4.5 -4.5,4.5 -2.48529,0 -4.5,-2.01477 -4.5,-4.5 0,-2.48529 2.01471,-4.5 4.5,-4.5 2.48529,0 4.5,2.01471 4.5,4.5"
         style="fill:none;stroke:#00509b;stroke-width:1.44;stroke-linecap:butt;stroke-linejoin:miter;stroke-miterlimit:2;stroke-dasharray:none;stroke-opacity:1"
         id="path3025" />
      <path
         d="m 676.96484,582.58826 c 0,2.48523 -2.01471,4.5 -4.5,4.5 -2.48529,0 -4.5,-2.01477 -4.5,-4.5 0,-2.48529 2.01471,-4.5 4.5,-4.5 2.48529,0 4.5,2.01471 4.5,4.5"
         style="fill:none;stroke:#00509b;stroke-width:1.44;stroke-linecap:butt;stroke-linejoin:miter;stroke-miterlimit:2;stroke-dasharray:none;stroke-opacity:1"
         id="path3027" />
      <path
         d="m 640.96484,582.58826 c 0,2.48523 -2.01471,4.5 -4.5,4.5 -2.48529,0 -4.5,-2.01477 -4.5,-4.5 0,-2.48529 2.01471,-4.5 4.5,-4.5 2.48529,0 4.5,2.01471 4.5,4.5"
         style="fill:none;stroke:#00509b;stroke-width:1.44;stroke-linecap:butt;stroke-linejoin:miter;stroke-miterlimit:2;stroke-dasharray:none;stroke-opacity:1"
         id="path3029" />
      <path
         d="m 748.06482,600.58826 c 0,1.98822 -1.61176,3.59997 -3.59998,3.59997 -1.98822,0 -3.60003,-1.61175 -3.60003,-3.59997 0,-1.98822 1.61181,-3.60004 3.60003,-3.60004 1.98822,0 3.59998,1.61182 3.59998,3.60004"
         style="fill:none;stroke:#00509b;stroke-width:1.44;stroke-linecap:butt;stroke-linejoin:miter;stroke-miterlimit:2;stroke-dasharray:none;stroke-opacity:1"
         id="path3031" />
      <path
         d="m 712.06482,600.58826 c 0,1.98822 -1.61176,3.59997 -3.59998,3.59997 -1.98822,0 -3.60003,-1.61175 -3.60003,-3.59997 0,-1.98822 1.61181,-3.60004 3.60003,-3.60004 1.98822,0 3.59998,1.61182 3.59998,3.60004"
         style="fill:none;stroke:#00509b;stroke-width:1.44;stroke-linecap:butt;stroke-linejoin:miter;stroke-miterlimit:2;stroke-dasharray:none;stroke-opacity:1"
         id="path3033" />
      <path
         d="m 676.06482,600.58826 c 0,1.98822 -1.61176,3.59997 -3.59998,3.59997 -1.98822,0 -3.60003,-1.61175 -3.60003,-3.59997 0,-1.98822 1.61181,-3.60004 3.60003,-3.60004 1.98822,0 3.59998,1.61182 3.59998,3.60004"
         style="fill:none;stroke:#00509b;stroke-width:1.44;stroke-linecap:butt;stroke-linejoin:miter;stroke-miterlimit:2;stroke-dasharray:none;stroke-opacity:1"
         id="path3035" />
      <path
         d="m 640.06482,600.58826 c 0,1.98822 -1.61176,3.59997 -3.59998,3.59997 -1.98822,0 -3.60003,-1.61175 -3.60003,-3.59997 0,-1.98822 1.61181,-3.60004 3.60003,-3.60004 1.98822,0 3.59998,1.61182 3.59998,3.60004"
         style="fill:none;stroke:#00509b;stroke-width:1.44;stroke-linecap:butt;stroke-linejoin:miter;stroke-miterlimit:2;stroke-dasharray:none;stroke-opacity:1"
         id="path3037" />
      <path
         d="m 620.71484,566.38824 c 0,1.24262 -1.00738,2.25 -2.25,2.25 -1.24267,0 -2.25,-1.00738 -2.25,-2.25 0,-1.24267 1.00733,-2.25 2.25,-2.25 1.24262,0 2.25,1.00733 2.25,2.25"
         style="fill:none;stroke:#00509b;stroke-width:1.44;stroke-linecap:butt;stroke-linejoin:miter;stroke-miterlimit:2;stroke-dasharray:none;stroke-opacity:1"
         id="path3039" />
      <path
         d="m 677.86481,690.58826 c 0,2.9823 -2.41767,5.39996 -5.39997,5.39996 -2.98236,0 -5.40002,-2.41766 -5.40002,-5.39996 0,-2.98236 2.41766,-5.40003 5.40002,-5.40003 2.9823,0 5.39997,2.41767 5.39997,5.40003"
         style="fill:none;stroke:#00509b;stroke-width:1.44;stroke-linecap:butt;stroke-linejoin:miter;stroke-miterlimit:2;stroke-dasharray:none;stroke-opacity:1"
         id="path3041" />
      <path
         d="m 641.86481,690.58826 c 0,2.9823 -2.41767,5.39996 -5.39997,5.39996 -2.98236,0 -5.40002,-2.41766 -5.40002,-5.39996 0,-2.98236 2.41766,-5.40003 5.40002,-5.40003 2.9823,0 5.39997,2.41767 5.39997,5.40003"
         style="fill:none;stroke:#00509b;stroke-width:1.44;stroke-linecap:butt;stroke-linejoin:miter;stroke-miterlimit:2;stroke-dasharray:none;stroke-opacity:1"
         id="path3043" />
      <path
         d="m 676.96484,661.78821 c 0,2.48529 -2.01471,4.5 -4.5,4.5 -2.48529,0 -4.5,-2.01471 -4.5,-4.5 0,-2.48523 2.01471,-4.5 4.5,-4.5 2.48529,0 4.5,2.01477 4.5,4.5"
         style="fill:none;stroke:#00509b;stroke-width:1.44;stroke-linecap:butt;stroke-linejoin:miter;stroke-miterlimit:2;stroke-dasharray:none;stroke-opacity:1"
         id="path3045" />
      <path
         d="m 640.96484,661.78821 c 0,2.48529 -2.01471,4.5 -4.5,4.5 -2.48529,0 -4.5,-2.01471 -4.5,-4.5 0,-2.48523 2.01471,-4.5 4.5,-4.5 2.48529,0 4.5,2.01477 4.5,4.5"
         style="fill:none;stroke:#00509b;stroke-width:1.44;stroke-linecap:butt;stroke-linejoin:miter;stroke-miterlimit:2;stroke-dasharray:none;stroke-opacity:1"
         id="path3047" />
      <path
         d="m 677.86481,719.38824 c 0,2.9823 -2.41767,5.39997 -5.39997,5.39997 -2.98236,0 -5.40002,-2.41767 -5.40002,-5.39997 0,-2.98236 2.41766,-5.40002 5.40002,-5.40002 2.9823,0 5.39997,2.41766 5.39997,5.40002"
         style="fill:none;stroke:#00509b;stroke-width:1.44;stroke-linecap:butt;stroke-linejoin:miter;stroke-miterlimit:2;stroke-dasharray:none;stroke-opacity:1"
         id="path3049" />
      <path
         d="m 641.86481,719.38824 c 0,2.9823 -2.41767,5.39997 -5.39997,5.39997 -2.98236,0 -5.40002,-2.41767 -5.40002,-5.39997 0,-2.98236 2.41766,-5.40002 5.40002,-5.40002 2.9823,0 5.39997,2.41766 5.39997,5.40002"
         style="fill:none;stroke:#00509b;stroke-width:1.44;stroke-linecap:butt;stroke-linejoin:miter;stroke-miterlimit:2;stroke-dasharray:none;stroke-opacity:1"
         id="path3051" />
      <path
         d="m 620.71484,740.98822 c 0,1.24268 -1.00738,2.25 -2.25,2.25 -1.24267,0 -2.25,-1.00732 -2.25,-2.25 0,-1.24261 1.00733,-2.25 2.25,-2.25 1.24262,0 2.25,1.00739 2.25,2.25"
         style="fill:none;stroke:#00509b;stroke-width:1.44;stroke-linecap:butt;stroke-linejoin:miter;stroke-miterlimit:2;stroke-dasharray:none;stroke-opacity:1"
         id="path3053" />
      <path
         d="m 674.26483,703.18823 c 0,0.99414 -0.80591,1.79999 -1.79999,1.79999 -0.99414,0 -1.80005,-0.80585 -1.80005,-1.79999 0,-0.99414 0.80591,-1.79999 1.80005,-1.79999 0.99408,0 1.79999,0.80585 1.79999,1.79999"
         style="fill:none;stroke:#00509b;stroke-width:1.44;stroke-linecap:butt;stroke-linejoin:miter;stroke-miterlimit:2;stroke-dasharray:none;stroke-opacity:1"
         id="path3055" />
      <path
         d="m 638.26483,703.18823 c 0,0.99414 -0.80591,1.79999 -1.79999,1.79999 -0.99414,0 -1.80005,-0.80585 -1.80005,-1.79999 0,-0.99414 0.80591,-1.79999 1.80005,-1.79999 0.99408,0 1.79999,0.80585 1.79999,1.79999"
         style="fill:none;stroke:#00509b;stroke-width:1.44;stroke-linecap:butt;stroke-linejoin:miter;stroke-miterlimit:2;stroke-dasharray:none;stroke-opacity:1"
         id="path3057" />
      <path
         d="m 638.26483,731.98822 c 0,0.99414 -0.80591,1.79999 -1.79999,1.79999 -0.99414,0 -1.80005,-0.80585 -1.80005,-1.79999 0,-0.99408 0.80591,-1.79999 1.80005,-1.79999 0.99408,0 1.79999,0.80591 1.79999,1.79999"
         style="fill:none;stroke:#00509b;stroke-width:1.44;stroke-linecap:butt;stroke-linejoin:miter;stroke-miterlimit:2;stroke-dasharray:none;stroke-opacity:1"
         id="path3059" />
      <path
         d="m 674.26483,731.98822 c 0,0.99414 -0.80591,1.79999 -1.79999,1.79999 -0.99414,0 -1.80005,-0.80585 -1.80005,-1.79999 0,-0.99408 0.80591,-1.79999 1.80005,-1.79999 0.99408,0 1.79999,0.80591 1.79999,1.79999"
         style="fill:none;stroke:#00509b;stroke-width:1.44;stroke-linecap:butt;stroke-linejoin:miter;stroke-miterlimit:2;stroke-dasharray:none;stroke-opacity:1"
         id="path3061" />
      <path
         d="m 749.86481,690.58826 c 0,2.9823 -2.41767,5.39996 -5.39997,5.39996 -2.98236,0 -5.40002,-2.41766 -5.40002,-5.39996 0,-2.98236 2.41766,-5.40003 5.40002,-5.40003 2.9823,0 5.39997,2.41767 5.39997,5.40003"
         style="fill:none;stroke:#00509b;stroke-width:1.44;stroke-linecap:butt;stroke-linejoin:miter;stroke-miterlimit:2;stroke-dasharray:none;stroke-opacity:1"
         id="path3063" />
      <path
         d="m 713.86481,690.58826 c 0,2.9823 -2.41767,5.39996 -5.39997,5.39996 -2.98236,0 -5.40002,-2.41766 -5.40002,-5.39996 0,-2.98236 2.41766,-5.40003 5.40002,-5.40003 2.9823,0 5.39997,2.41767 5.39997,5.40003"
         style="fill:none;stroke:#00509b;stroke-width:1.44;stroke-linecap:butt;stroke-linejoin:miter;stroke-miterlimit:2;stroke-dasharray:none;stroke-opacity:1"
         id="path3065" />
      <path
         d="m 748.96484,661.78821 c 0,2.48529 -2.01471,4.5 -4.5,4.5 -2.48529,0 -4.5,-2.01471 -4.5,-4.5 0,-2.48523 2.01471,-4.5 4.5,-4.5 2.48529,0 4.5,2.01477 4.5,4.5"
         style="fill:none;stroke:#00509b;stroke-width:1.44;stroke-linecap:butt;stroke-linejoin:miter;stroke-miterlimit:2;stroke-dasharray:none;stroke-opacity:1"
         id="path3067" />
      <path
         d="m 712.96484,661.78821 c 0,2.48529 -2.01471,4.5 -4.5,4.5 -2.48529,0 -4.5,-2.01471 -4.5,-4.5 0,-2.48523 2.01471,-4.5 4.5,-4.5 2.48529,0 4.5,2.01477 4.5,4.5"
         style="fill:none;stroke:#00509b;stroke-width:1.44;stroke-linecap:butt;stroke-linejoin:miter;stroke-miterlimit:2;stroke-dasharray:none;stroke-opacity:1"
         id="path3069" />
      <path
         d="m 749.86481,719.38824 c 0,2.9823 -2.41767,5.39997 -5.39997,5.39997 -2.98236,0 -5.40002,-2.41767 -5.40002,-5.39997 0,-2.98236 2.41766,-5.40002 5.40002,-5.40002 2.9823,0 5.39997,2.41766 5.39997,5.40002"
         style="fill:none;stroke:#00509b;stroke-width:1.44;stroke-linecap:butt;stroke-linejoin:miter;stroke-miterlimit:2;stroke-dasharray:none;stroke-opacity:1"
         id="path3071" />
      <path
         d="m 713.86481,719.38824 c 0,2.9823 -2.41767,5.39997 -5.39997,5.39997 -2.98236,0 -5.40002,-2.41767 -5.40002,-5.39997 0,-2.98236 2.41766,-5.40002 5.40002,-5.40002 2.9823,0 5.39997,2.41766 5.39997,5.40002"
         style="fill:none;stroke:#00509b;stroke-width:1.44;stroke-linecap:butt;stroke-linejoin:miter;stroke-miterlimit:2;stroke-dasharray:none;stroke-opacity:1"
         id="path3073" />
      <path
         d="m 746.26483,703.18823 c 0,0.99414 -0.80591,1.79999 -1.79999,1.79999 -0.99414,0 -1.80005,-0.80585 -1.80005,-1.79999 0,-0.99414 0.80591,-1.79999 1.80005,-1.79999 0.99408,0 1.79999,0.80585 1.79999,1.79999"
         style="fill:none;stroke:#00509b;stroke-width:1.44;stroke-linecap:butt;stroke-linejoin:miter;stroke-miterlimit:2;stroke-dasharray:none;stroke-opacity:1"
         id="path3075" />
      <path
         d="m 710.26483,703.18823 c 0,0.99414 -0.80591,1.79999 -1.79999,1.79999 -0.99414,0 -1.80005,-0.80585 -1.80005,-1.79999 0,-0.99414 0.80591,-1.79999 1.80005,-1.79999 0.99408,0 1.79999,0.80585 1.79999,1.79999"
         style="fill:none;stroke:#00509b;stroke-width:1.44;stroke-linecap:butt;stroke-linejoin:miter;stroke-miterlimit:2;stroke-dasharray:none;stroke-opacity:1"
         id="path3077" />
      <path
         d="m 710.26483,731.98822 c 0,0.99414 -0.80591,1.79999 -1.79999,1.79999 -0.99414,0 -1.80005,-0.80585 -1.80005,-1.79999 0,-0.99408 0.80591,-1.79999 1.80005,-1.79999 0.99408,0 1.79999,0.80591 1.79999,1.79999"
         style="fill:none;stroke:#00509b;stroke-width:1.44;stroke-linecap:butt;stroke-linejoin:miter;stroke-miterlimit:2;stroke-dasharray:none;stroke-opacity:1"
         id="path3079" />
      <path
         d="m 746.26483,731.98822 c 0,0.99414 -0.80591,1.79999 -1.79999,1.79999 -0.99414,0 -1.80005,-0.80585 -1.80005,-1.79999 0,-0.99408 0.80591,-1.79999 1.80005,-1.79999 0.99408,0 1.79999,0.80591 1.79999,1.79999"
         style="fill:none;stroke:#00509b;stroke-width:1.44;stroke-linecap:butt;stroke-linejoin:miter;stroke-miterlimit:2;stroke-dasharray:none;stroke-opacity:1"
         id="path3081" />
      <path
         d="m 891.16479,598.78821 c 0,7.45587 -6.04412,13.5 -13.5,13.5 -7.45581,0 -13.5,-6.04413 -13.5,-13.5 0,-7.45581 6.04419,-13.5 13.5,-13.5 7.45588,0 13.5,6.04419 13.5,13.5"
         style="fill:none;stroke:#00509b;stroke-width:1.44;stroke-linecap:butt;stroke-linejoin:miter;stroke-miterlimit:2;stroke-dasharray:none;stroke-opacity:1"
         id="path3083" />
      <path
         d="m 856.96484,598.78821 c 0,7.45587 -6.04419,13.5 -13.5,13.5 -7.45587,0 -13.5,-6.04413 -13.5,-13.5 0,-7.45581 6.04413,-13.5 13.5,-13.5 7.45581,0 13.5,6.04419 13.5,13.5"
         style="fill:none;stroke:#00509b;stroke-width:1.44;stroke-linecap:butt;stroke-linejoin:miter;stroke-miterlimit:2;stroke-dasharray:none;stroke-opacity:1"
         id="path3085" />
      <path
         d="m 892.96484,640.18823 c 0,2.48529 -2.01471,4.5 -4.5,4.5 -2.48529,0 -4.5,-2.01471 -4.5,-4.5 0,-2.48529 2.01471,-4.5 4.5,-4.5 2.48529,0 4.5,2.01471 4.5,4.5"
         style="fill:none;stroke:#00509b;stroke-width:1.44;stroke-linecap:butt;stroke-linejoin:miter;stroke-miterlimit:2;stroke-dasharray:none;stroke-opacity:1"
         id="path3087" />
      <path
         d="m 856.96484,640.18823 c 0,2.48529 -2.01471,4.5 -4.5,4.5 -2.48529,0 -4.5,-2.01471 -4.5,-4.5 0,-2.48529 2.01471,-4.5 4.5,-4.5 2.48529,0 4.5,2.01471 4.5,4.5"
         style="fill:none;stroke:#00509b;stroke-width:1.44;stroke-linecap:butt;stroke-linejoin:miter;stroke-miterlimit:2;stroke-dasharray:none;stroke-opacity:1"
         id="path3089" />
      <path
         d="m 820.96484,582.58826 c 0,2.48523 -2.01471,4.5 -4.5,4.5 -2.48529,0 -4.5,-2.01477 -4.5,-4.5 0,-2.48529 2.01471,-4.5 4.5,-4.5 2.48529,0 4.5,2.01471 4.5,4.5"
         style="fill:none;stroke:#00509b;stroke-width:1.44;stroke-linecap:butt;stroke-linejoin:miter;stroke-miterlimit:2;stroke-dasharray:none;stroke-opacity:1"
         id="path3091" />
      <path
         d="m 784.96484,582.58826 c 0,2.48523 -2.01471,4.5 -4.5,4.5 -2.48529,0 -4.5,-2.01477 -4.5,-4.5 0,-2.48529 2.01471,-4.5 4.5,-4.5 2.48529,0 4.5,2.01471 4.5,4.5"
         style="fill:none;stroke:#00509b;stroke-width:1.44;stroke-linecap:butt;stroke-linejoin:miter;stroke-miterlimit:2;stroke-dasharray:none;stroke-opacity:1"
         id="path3093" />
      <path
         d="m 820.06482,600.58826 c 0,1.98822 -1.61176,3.59997 -3.59998,3.59997 -1.98822,0 -3.60003,-1.61175 -3.60003,-3.59997 0,-1.98822 1.61181,-3.60004 3.60003,-3.60004 1.98822,0 3.59998,1.61182 3.59998,3.60004"
         style="fill:none;stroke:#00509b;stroke-width:1.44;stroke-linecap:butt;stroke-linejoin:miter;stroke-miterlimit:2;stroke-dasharray:none;stroke-opacity:1"
         id="path3095" />
      <path
         d="m 784.06482,600.58826 c 0,1.98822 -1.61176,3.59997 -3.59998,3.59997 -1.98822,0 -3.60003,-1.61175 -3.60003,-3.59997 0,-1.98822 1.61181,-3.60004 3.60003,-3.60004 1.98822,0 3.59998,1.61182 3.59998,3.60004"
         style="fill:none;stroke:#00509b;stroke-width:1.44;stroke-linecap:butt;stroke-linejoin:miter;stroke-miterlimit:2;stroke-dasharray:none;stroke-opacity:1"
         id="path3097" />
      <path
         d="m 894.31482,566.38824 c 0,1.24262 -1.00732,2.25 -2.25,2.25 -1.24262,0 -2.25,-1.00738 -2.25,-2.25 0,-1.24267 1.00738,-2.25 2.25,-2.25 1.24268,0 2.25,1.00733 2.25,2.25"
         style="fill:none;stroke:#00509b;stroke-width:1.44;stroke-linecap:butt;stroke-linejoin:miter;stroke-miterlimit:2;stroke-dasharray:none;stroke-opacity:1"
         id="path3099" />
      <path
         d="m 893.86481,719.38824 c 0,2.9823 -2.41767,5.39997 -5.39997,5.39997 -2.98236,0 -5.40002,-2.41767 -5.40002,-5.39997 0,-2.98236 2.41766,-5.40002 5.40002,-5.40002 2.9823,0 5.39997,2.41766 5.39997,5.40002"
         style="fill:none;stroke:#00509b;stroke-width:1.44;stroke-linecap:butt;stroke-linejoin:miter;stroke-miterlimit:2;stroke-dasharray:none;stroke-opacity:1"
         id="path3101" />
      <path
         d="m 857.86481,719.38824 c 0,2.9823 -2.41767,5.39997 -5.39997,5.39997 -2.98236,0 -5.40002,-2.41767 -5.40002,-5.39997 0,-2.98236 2.41766,-5.40002 5.40002,-5.40002 2.9823,0 5.39997,2.41766 5.39997,5.40002"
         style="fill:none;stroke:#00509b;stroke-width:1.44;stroke-linecap:butt;stroke-linejoin:miter;stroke-miterlimit:2;stroke-dasharray:none;stroke-opacity:1"
         id="path3103" />
      <path
         d="m 821.86481,690.58826 c 0,2.9823 -2.41767,5.39996 -5.39997,5.39996 -2.98236,0 -5.40002,-2.41766 -5.40002,-5.39996 0,-2.98236 2.41766,-5.40003 5.40002,-5.40003 2.9823,0 5.39997,2.41767 5.39997,5.40003"
         style="fill:none;stroke:#00509b;stroke-width:1.44;stroke-linecap:butt;stroke-linejoin:miter;stroke-miterlimit:2;stroke-dasharray:none;stroke-opacity:1"
         id="path3105" />
      <path
         d="m 821.86481,719.38824 c 0,2.9823 -2.41767,5.39997 -5.39997,5.39997 -2.98236,0 -5.40002,-2.41767 -5.40002,-5.39997 0,-2.98236 2.41766,-5.40002 5.40002,-5.40002 2.9823,0 5.39997,2.41766 5.39997,5.40002"
         style="fill:none;stroke:#00509b;stroke-width:1.44;stroke-linecap:butt;stroke-linejoin:miter;stroke-miterlimit:2;stroke-dasharray:none;stroke-opacity:1"
         id="path3107" />
      <path
         d="m 785.86481,690.58826 c 0,2.9823 -2.41767,5.39996 -5.39997,5.39996 -2.98236,0 -5.40002,-2.41766 -5.40002,-5.39996 0,-2.98236 2.41766,-5.40003 5.40002,-5.40003 2.9823,0 5.39997,2.41767 5.39997,5.40003"
         style="fill:none;stroke:#00509b;stroke-width:1.44;stroke-linecap:butt;stroke-linejoin:miter;stroke-miterlimit:2;stroke-dasharray:none;stroke-opacity:1"
         id="path3109" />
      <path
         d="m 785.86481,719.38824 c 0,2.9823 -2.41767,5.39997 -5.39997,5.39997 -2.98236,0 -5.40002,-2.41767 -5.40002,-5.39997 0,-2.98236 2.41766,-5.40002 5.40002,-5.40002 2.9823,0 5.39997,2.41766 5.39997,5.40002"
         style="fill:none;stroke:#00509b;stroke-width:1.44;stroke-linecap:butt;stroke-linejoin:miter;stroke-miterlimit:2;stroke-dasharray:none;stroke-opacity:1"
         id="path3111" />
      <path
         d="m 892.96484,665.38824 c 0,2.4853 -2.01471,4.5 -4.5,4.5 -2.48529,0 -4.5,-2.0147 -4.5,-4.5 0,-2.48529 2.01471,-4.5 4.5,-4.5 2.48529,0 4.5,2.01471 4.5,4.5"
         style="fill:none;stroke:#00509b;stroke-width:1.44;stroke-linecap:butt;stroke-linejoin:miter;stroke-miterlimit:2;stroke-dasharray:none;stroke-opacity:1"
         id="path3113" />
      <path
         d="m 856.96484,665.38824 c 0,2.4853 -2.01471,4.5 -4.5,4.5 -2.48529,0 -4.5,-2.0147 -4.5,-4.5 0,-2.48529 2.01471,-4.5 4.5,-4.5 2.48529,0 4.5,2.01471 4.5,4.5"
         style="fill:none;stroke:#00509b;stroke-width:1.44;stroke-linecap:butt;stroke-linejoin:miter;stroke-miterlimit:2;stroke-dasharray:none;stroke-opacity:1"
         id="path3115" />
      <path
         d="m 892.96484,690.58826 c 0,2.48523 -2.01471,4.5 -4.5,4.5 -2.48529,0 -4.5,-2.01477 -4.5,-4.5 0,-2.48529 2.01471,-4.5 4.5,-4.5 2.48529,0 4.5,2.01471 4.5,4.5"
         style="fill:none;stroke:#00509b;stroke-width:1.44;stroke-linecap:butt;stroke-linejoin:miter;stroke-miterlimit:2;stroke-dasharray:none;stroke-opacity:1"
         id="path3117" />
      <path
         d="m 856.96484,690.58826 c 0,2.48523 -2.01471,4.5 -4.5,4.5 -2.48529,0 -4.5,-2.01477 -4.5,-4.5 0,-2.48529 2.01471,-4.5 4.5,-4.5 2.48529,0 4.5,2.01471 4.5,4.5"
         style="fill:none;stroke:#00509b;stroke-width:1.44;stroke-linecap:butt;stroke-linejoin:miter;stroke-miterlimit:2;stroke-dasharray:none;stroke-opacity:1"
         id="path3119" />
      <path
         d="m 820.96484,661.78821 c 0,2.48529 -2.01471,4.5 -4.5,4.5 -2.48529,0 -4.5,-2.01471 -4.5,-4.5 0,-2.48523 2.01471,-4.5 4.5,-4.5 2.48529,0 4.5,2.01477 4.5,4.5"
         style="fill:none;stroke:#00509b;stroke-width:1.44;stroke-linecap:butt;stroke-linejoin:miter;stroke-miterlimit:2;stroke-dasharray:none;stroke-opacity:1"
         id="path3121" />
      <path
         d="m 784.96484,661.78821 c 0,2.48529 -2.01471,4.5 -4.5,4.5 -2.48529,0 -4.5,-2.01471 -4.5,-4.5 0,-2.48523 2.01471,-4.5 4.5,-4.5 2.48529,0 4.5,2.01477 4.5,4.5"
         style="fill:none;stroke:#00509b;stroke-width:1.44;stroke-linecap:butt;stroke-linejoin:miter;stroke-miterlimit:2;stroke-dasharray:none;stroke-opacity:1"
         id="path3123" />
      <path
         d="m 894.31482,740.98822 c 0,1.24268 -1.00732,2.25 -2.25,2.25 -1.24262,0 -2.25,-1.00732 -2.25,-2.25 0,-1.24261 1.00738,-2.25 2.25,-2.25 1.24268,0 2.25,1.00739 2.25,2.25"
         style="fill:none;stroke:#00509b;stroke-width:1.44;stroke-linecap:butt;stroke-linejoin:miter;stroke-miterlimit:2;stroke-dasharray:none;stroke-opacity:1"
         id="path3125" />
      <path
         d="m 782.26483,703.18823 c 0,0.99414 -0.80591,1.79999 -1.79999,1.79999 -0.99414,0 -1.80005,-0.80585 -1.80005,-1.79999 0,-0.99414 0.80591,-1.79999 1.80005,-1.79999 0.99408,0 1.79999,0.80585 1.79999,1.79999"
         style="fill:none;stroke:#00509b;stroke-width:1.44;stroke-linecap:butt;stroke-linejoin:miter;stroke-miterlimit:2;stroke-dasharray:none;stroke-opacity:1"
         id="path3127" />
      <path
         d="m 782.26483,731.98822 c 0,0.99414 -0.80591,1.79999 -1.79999,1.79999 -0.99414,0 -1.80005,-0.80585 -1.80005,-1.79999 0,-0.99408 0.80591,-1.79999 1.80005,-1.79999 0.99408,0 1.79999,0.80591 1.79999,1.79999"
         style="fill:none;stroke:#00509b;stroke-width:1.44;stroke-linecap:butt;stroke-linejoin:miter;stroke-miterlimit:2;stroke-dasharray:none;stroke-opacity:1"
         id="path3129" />
      <path
         d="m 818.26483,703.18823 c 0,0.99414 -0.80591,1.79999 -1.79999,1.79999 -0.99414,0 -1.80005,-0.80585 -1.80005,-1.79999 0,-0.99414 0.80591,-1.79999 1.80005,-1.79999 0.99408,0 1.79999,0.80585 1.79999,1.79999"
         style="fill:none;stroke:#00509b;stroke-width:1.44;stroke-linecap:butt;stroke-linejoin:miter;stroke-miterlimit:2;stroke-dasharray:none;stroke-opacity:1"
         id="path3131" />
      <path
         d="m 818.26483,731.98822 c 0,0.99414 -0.80591,1.79999 -1.79999,1.79999 -0.99414,0 -1.80005,-0.80585 -1.80005,-1.79999 0,-0.99408 0.80591,-1.79999 1.80005,-1.79999 0.99408,0 1.79999,0.80591 1.79999,1.79999"
         style="fill:none;stroke:#00509b;stroke-width:1.44;stroke-linecap:butt;stroke-linejoin:miter;stroke-miterlimit:2;stroke-dasharray:none;stroke-opacity:1"
         id="path3133" />
      <path
         d="m 854.26483,731.98822 c 0,0.99414 -0.80591,1.79999 -1.79999,1.79999 -0.99414,0 -1.80005,-0.80585 -1.80005,-1.79999 0,-0.99408 0.80591,-1.79999 1.80005,-1.79999 0.99408,0 1.79999,0.80591 1.79999,1.79999"
         style="fill:none;stroke:#00509b;stroke-width:1.44;stroke-linecap:butt;stroke-linejoin:miter;stroke-miterlimit:2;stroke-dasharray:none;stroke-opacity:1"
         id="path3135" />
      <path
         d="m 890.26483,731.98822 c 0,0.99414 -0.80591,1.79999 -1.79999,1.79999 -0.99414,0 -1.80005,-0.80585 -1.80005,-1.79999 0,-0.99408 0.80591,-1.79999 1.80005,-1.79999 0.99408,0 1.79999,0.80591 1.79999,1.79999"
         style="fill:none;stroke:#00509b;stroke-width:1.44;stroke-linecap:butt;stroke-linejoin:miter;stroke-miterlimit:2;stroke-dasharray:none;stroke-opacity:1"
         id="path3137" />
    </g>
  </g>
</svg>
